<mxfile host="Electron" agent="Mozilla/5.0 (Windows NT 10.0; Win64; x64) AppleWebKit/537.36 (KHTML, like Gecko) draw.io/26.0.7 Chrome/128.0.6613.186 Electron/32.2.5 Safari/537.36" version="26.0.7">
  <diagram name="Page-1" id="pAmhl3rui1LBFJERfOYW">
    <mxGraphModel dx="987" dy="577" grid="1" gridSize="10" guides="1" tooltips="1" connect="1" arrows="1" fold="1" page="1" pageScale="1" pageWidth="850" pageHeight="1100" math="0" shadow="0">
      <root>
        <mxCell id="0" />
        <mxCell id="1" parent="0" />
        <mxCell id="WuAxMcX6Pfc4uK0pbkoB-10" style="edgeStyle=orthogonalEdgeStyle;rounded=0;orthogonalLoop=1;jettySize=auto;html=1;entryX=0.5;entryY=0;entryDx=0;entryDy=0;" edge="1" parent="1" source="WuAxMcX6Pfc4uK0pbkoB-1" target="WuAxMcX6Pfc4uK0pbkoB-3">
          <mxGeometry relative="1" as="geometry" />
        </mxCell>
        <mxCell id="WuAxMcX6Pfc4uK0pbkoB-1" value="Start" style="ellipse;whiteSpace=wrap;html=1;" vertex="1" parent="1">
          <mxGeometry x="365" y="40" width="120" height="80" as="geometry" />
        </mxCell>
        <mxCell id="WuAxMcX6Pfc4uK0pbkoB-2" value="End" style="ellipse;whiteSpace=wrap;html=1;" vertex="1" parent="1">
          <mxGeometry x="365" y="720" width="120" height="80" as="geometry" />
        </mxCell>
        <mxCell id="WuAxMcX6Pfc4uK0pbkoB-9" style="edgeStyle=orthogonalEdgeStyle;rounded=0;orthogonalLoop=1;jettySize=auto;html=1;entryX=0.5;entryY=0;entryDx=0;entryDy=0;" edge="1" parent="1" source="WuAxMcX6Pfc4uK0pbkoB-3" target="WuAxMcX6Pfc4uK0pbkoB-18">
          <mxGeometry relative="1" as="geometry">
            <mxPoint x="425" y="320" as="targetPoint" />
          </mxGeometry>
        </mxCell>
        <mxCell id="WuAxMcX6Pfc4uK0pbkoB-3" value="Select Destination" style="shape=parallelogram;perimeter=parallelogramPerimeter;whiteSpace=wrap;html=1;fixedSize=1;" vertex="1" parent="1">
          <mxGeometry x="315" y="180" width="220" height="60" as="geometry" />
        </mxCell>
        <mxCell id="WuAxMcX6Pfc4uK0pbkoB-23" style="edgeStyle=orthogonalEdgeStyle;rounded=0;orthogonalLoop=1;jettySize=auto;html=1;entryX=0;entryY=0.5;entryDx=0;entryDy=0;" edge="1" parent="1" source="WuAxMcX6Pfc4uK0pbkoB-18" target="WuAxMcX6Pfc4uK0pbkoB-20">
          <mxGeometry relative="1" as="geometry" />
        </mxCell>
        <mxCell id="WuAxMcX6Pfc4uK0pbkoB-24" style="edgeStyle=orthogonalEdgeStyle;rounded=0;orthogonalLoop=1;jettySize=auto;html=1;entryX=0.5;entryY=0;entryDx=0;entryDy=0;" edge="1" parent="1" source="WuAxMcX6Pfc4uK0pbkoB-18" target="WuAxMcX6Pfc4uK0pbkoB-22">
          <mxGeometry relative="1" as="geometry" />
        </mxCell>
        <mxCell id="WuAxMcX6Pfc4uK0pbkoB-18" value="is destination equals&lt;div&gt;Cashier?&lt;/div&gt;" style="rhombus;whiteSpace=wrap;html=1;" vertex="1" parent="1">
          <mxGeometry x="370" y="310" width="110" height="110" as="geometry" />
        </mxCell>
        <mxCell id="WuAxMcX6Pfc4uK0pbkoB-29" style="edgeStyle=orthogonalEdgeStyle;rounded=0;orthogonalLoop=1;jettySize=auto;html=1;entryX=1;entryY=0.5;entryDx=0;entryDy=0;" edge="1" parent="1" source="WuAxMcX6Pfc4uK0pbkoB-20" target="WuAxMcX6Pfc4uK0pbkoB-26">
          <mxGeometry relative="1" as="geometry">
            <Array as="points">
              <mxPoint x="640" y="630" />
            </Array>
          </mxGeometry>
        </mxCell>
        <mxCell id="WuAxMcX6Pfc4uK0pbkoB-20" value="Generate new cashier ticket with no assigned cashier" style="rounded=0;whiteSpace=wrap;html=1;" vertex="1" parent="1">
          <mxGeometry x="560" y="335" width="160" height="60" as="geometry" />
        </mxCell>
        <mxCell id="WuAxMcX6Pfc4uK0pbkoB-27" style="edgeStyle=orthogonalEdgeStyle;rounded=0;orthogonalLoop=1;jettySize=auto;html=1;entryX=0.5;entryY=0;entryDx=0;entryDy=0;" edge="1" parent="1" source="WuAxMcX6Pfc4uK0pbkoB-22" target="WuAxMcX6Pfc4uK0pbkoB-26">
          <mxGeometry relative="1" as="geometry" />
        </mxCell>
        <mxCell id="WuAxMcX6Pfc4uK0pbkoB-22" value="Generate new registrar ticket with assigned registrar" style="rounded=0;whiteSpace=wrap;html=1;" vertex="1" parent="1">
          <mxGeometry x="345" y="480" width="160" height="60" as="geometry" />
        </mxCell>
        <mxCell id="WuAxMcX6Pfc4uK0pbkoB-30" style="edgeStyle=orthogonalEdgeStyle;rounded=0;orthogonalLoop=1;jettySize=auto;html=1;entryX=0.5;entryY=0;entryDx=0;entryDy=0;" edge="1" parent="1" source="WuAxMcX6Pfc4uK0pbkoB-26" target="WuAxMcX6Pfc4uK0pbkoB-2">
          <mxGeometry relative="1" as="geometry" />
        </mxCell>
        <mxCell id="WuAxMcX6Pfc4uK0pbkoB-26" value="Print Generated Ticket" style="shape=parallelogram;perimeter=parallelogramPerimeter;whiteSpace=wrap;html=1;fixedSize=1;" vertex="1" parent="1">
          <mxGeometry x="315" y="600" width="220" height="60" as="geometry" />
        </mxCell>
      </root>
    </mxGraphModel>
  </diagram>
</mxfile>
